<svg width="101" height="70" viewBox="0 0 101 70" fill="none" xmlns="http://www.w3.org/2000/svg">
<g id="Driver">
<path id="Fill 15" fill-rule="evenodd" clip-rule="evenodd" d="M100.99 24.0271C100.554 19.6682 93.3046 21.3456 89.4597 21.6824C86.8339 15.8767 84.4009 11.6232 82.1671 8.51207C75.4532 -0.873032 70.6184 0.0748314 68.2352 0.0748314C65.0556 0.0748314 40.4903 -0.0935392 30.4585 0.0748314C20.4287 0.236966 13.9139 18.3268 11.4062 21.6824C11.4062 21.6824 0.517086 18.7515 0.037963 22.6864C-0.322313 26.3718 1.87979 27.0391 6.72702 28.0424C-0.292446 56.5226 7.89682 58.0317 7.89682 58.0317V66.9055C7.89682 69.9237 11.4062 69.9985 11.4062 69.9985H18.9291C21.1007 69.9985 21.1007 66.2376 21.1007 66.2376V58.8673H79.7653V66.9055C79.7653 70.7587 83.6107 69.9237 83.6107 69.9237H89.7957C92.9692 69.9237 93.3046 66.5743 93.3046 66.5743V58.0317C100.66 51.3281 95.3088 30.225 94.475 27.5442C96.6472 27.3758 101.245 26.5464 100.99 24.0271Z" fill="black"/>
<path id="Fill 17" opacity="0.1" fill-rule="evenodd" clip-rule="evenodd" d="M94.4824 27.881C95.3153 30.5412 100.66 51.4762 93.3133 58.1266V66.602C93.3133 66.602 92.9783 69.9242 89.8079 69.9242H83.6305C83.6305 69.9242 79.7888 70.7531 79.7888 66.9299V58.9556H32L38.7933 52.1938L38.8928 52.0948L45.394 45.6238L82.1885 9C84.4198 12.087 86.85 16.3062 89.4722 22.0658C93.3133 21.7317 100.555 20.0676 100.99 24.3919C101.245 26.8912 96.6515 27.714 94.4824 27.881Z" fill="#242E42"/>
<path id="Fill 19" fill-rule="evenodd" clip-rule="evenodd" d="M78.0822 25.9378H25.2954C22.1372 25.9378 15.2837 27.0521 19.1521 19.8499C19.9061 18.4712 20.8888 16.2992 20.8888 16.2992C22.712 12.4085 24.7948 7.00059 30.9387 7.00059H66.9705C68.8673 6.99429 71.3085 7.00059 73.929 9.11591C75.6595 10.5072 77.4642 12.8177 79.2448 16.6392C81.5742 21.2035 84.5593 25.9378 78.0822 25.9378Z" fill="#FDFFFE"/>
<path id="Fill 21" fill-rule="evenodd" clip-rule="evenodd" d="M64 7L44.9999 26H32L51.0008 7H64Z" fill="#EDEDED"/>
<path id="Fill 23" fill-rule="evenodd" clip-rule="evenodd" d="M75 9.12286L58.195 26H49L67.9182 7.00059C69.8491 6.99427 72.3333 7.00059 75 9.12286Z" fill="#EDEDED"/>
<path id="Fill 25" fill-rule="evenodd" clip-rule="evenodd" d="M20.6089 52C18.1872 52 13.261 50.8019 10.7554 49.4323C8.25033 48.0628 9.08534 42.9267 9.33591 42.285C9.58585 41.6432 11.0893 40.5305 12.4254 41.215C13.7616 41.9 16.7907 42.638 20.0251 43.355C23.8265 44.1982 24.5334 46.2649 24.9513 48.5669C25.3691 50.8688 23.0313 52 20.6089 52Z" fill="#FDFFFE"/>
<path id="Fill 27" fill-rule="evenodd" clip-rule="evenodd" d="M64.8005 52.6626C59.0819 53.1973 43.945 53.0189 38.8995 52.6626C33.8535 52.3057 28.6396 53.1973 30.322 45C38.2271 45.8903 64.128 45.7125 70.519 45C71.8646 48.7417 70.519 52.1279 64.8005 52.6626Z" fill="#FDFFFE"/>
<path id="Fill 29" fill-rule="evenodd" clip-rule="evenodd" d="M90.2446 49.4323C87.7396 50.8019 82.8128 52 80.3904 52C77.9693 52 75.6309 50.8688 76.0487 48.5675C76.4666 46.2656 77.1741 44.1982 80.9755 43.355C84.2099 42.638 87.2384 41.9 88.574 41.215C89.9107 40.5305 91.4135 41.6432 91.6641 42.285C91.9147 42.9267 92.7497 48.0628 90.2446 49.4323Z" fill="#FDFFFE"/>
</g>
</svg>
