<svg width="22" height="22" viewBox="0 0 22 22" fill="none" xmlns="http://www.w3.org/2000/svg">
<path d="M8.92125 5.07447C8.63603 1.79362 5.21331 0.183808 5.06845 0.118102C4.93256 0.0538883 4.78024 0.0344749 4.63389 0.0598616C0.682534 0.715435 0.0881873 3.01517 0.064294 3.11074C0.0314407 3.24514 0.037414 3.38402 0.0792273 3.51394C4.79219 18.1367 14.587 20.8471 17.8066 21.7386C18.0545 21.8073 18.2591 21.8625 18.4144 21.9133C18.489 21.9387 18.5667 21.9491 18.6443 21.9491C18.7504 21.9491 18.8564 21.9267 18.9535 21.8819C19.052 21.8371 21.3786 20.741 21.9476 17.166C21.973 17.0107 21.9476 16.8494 21.8759 16.709C21.8251 16.6105 20.6081 14.2943 17.2331 13.476C16.9972 13.4147 16.7553 13.4775 16.5731 13.6328C15.5083 14.5422 14.0374 15.5114 13.4027 15.6114C9.14824 13.5312 6.77235 9.53954 6.68275 8.78242C6.63048 8.35682 7.60563 6.86199 8.72712 5.64642C8.86899 5.49261 8.94067 5.28354 8.92125 5.07447Z" fill="black"/>
</svg>
