<svg width="29" height="35" viewBox="0 0 29 35" fill="none" xmlns="http://www.w3.org/2000/svg">
<path fill-rule="evenodd" clip-rule="evenodd" d="M12.5898 0.0195746C12.4177 0.0391741 11.8861 0.127453 11.4085 0.215732C7.50097 0.938216 4.67977 2.93515 3.68308 5.68389C3.53749 6.08527 3.51505 6.55745 3.47176 10.1233L3.42338 14.1136L2.85345 14.302C1.31841 14.8094 0.299283 15.9346 0.0570202 17.3896C-0.0121081 17.8047 -0.0179209 20.0364 0.0370777 25.0792L0.114523 32.1839L0.407938 32.7497C0.80679 33.519 1.39049 34.1205 2.07936 34.4723C3.14374 35.0158 2.73273 34.9983 14.5184 35C21.8063 35.001 25.3339 34.9734 25.697 34.9126C26.8069 34.727 27.9816 33.9192 28.4836 32.9964C29.0197 32.0111 29 32.3363 28.9999 24.4667L28.9998 17.2394L28.7917 16.7086C28.2889 15.4259 27.4624 14.6924 26.0712 14.2943L25.557 14.1472L25.5563 10.5076C25.5559 8.43916 25.5165 6.64761 25.4649 6.35738C25.0257 3.88581 22.5749 1.61056 19.297 0.631158C17.6721 0.145664 16.8462 0.031416 14.7808 0.00650837C13.7479 -0.0059046 12.762 -2.47869e-05 12.5898 0.0195746ZM13.1785 5.03409C11.3714 5.29255 10.0254 5.90357 9.45552 6.72405L9.19153 7.10419V10.5998V14.0953H14.4659H19.7403L19.7646 10.6489C19.7918 6.7884 19.8022 6.86304 19.1523 6.30315C18.647 5.86788 17.5774 5.40027 16.6141 5.19325C15.6578 4.98778 14.0297 4.91233 13.1785 5.03409ZM13.9844 19.8165C12.881 19.9853 11.7851 20.7511 11.3037 21.6898C11.079 22.1281 11.0253 22.3495 10.996 22.957C10.9391 24.1396 11.2496 24.8556 12.1805 25.6889L12.6793 26.1352V28.0792V30.0232L14.5349 30.0011L16.3905 29.979L16.4146 28.0648L16.4387 26.1507L17.02 25.6007C18.2779 24.4109 18.5182 23.0081 17.7153 21.5415C17.2414 20.6756 16.7364 20.3056 15.5081 19.9241C14.8499 19.7197 14.6908 19.7084 13.9844 19.8165Z" fill="#BEBEBE"/>
</svg>
