<svg width="66" height="96" viewBox="0 0 66 96" fill="none" xmlns="http://www.w3.org/2000/svg">
<g id="&#240;&#159;&#166;&#134; icon &#34;user&#34;">
<path id="Vector (Stroke)" fill-rule="evenodd" clip-rule="evenodd" d="M32.9148 9.59C25.124 9.59 18.8083 16.0304 18.8083 23.975C18.8083 31.9196 25.124 38.36 32.9148 38.36C40.7055 38.36 47.0212 31.9196 47.0212 23.975C47.0212 16.0304 40.7055 9.59 32.9148 9.59ZM9.40405 23.975C9.40405 10.734 19.9302 0 32.9148 0C45.8994 0 56.4255 10.734 56.4255 23.975C56.4255 37.216 45.8994 47.95 32.9148 47.95C19.9302 47.95 9.40405 37.216 9.40405 23.975Z" fill="black"/>
<path id="Vector (Stroke)_2" fill-rule="evenodd" clip-rule="evenodd" d="M23.5107 67.13C19.7695 67.13 16.1814 68.6456 13.536 71.3433C10.8905 74.041 9.40429 77.6999 9.40429 81.515V91.105C9.40429 93.7532 7.29907 95.9 4.70214 95.9C2.10522 95.9 0 93.7532 0 91.105V81.515C0 75.1564 2.47701 69.0583 6.88613 64.5621C11.2952 60.0659 17.2753 57.54 23.5107 57.54H42.3193C48.5547 57.54 54.5348 60.0659 58.9439 64.5621C63.353 69.0583 65.83 75.1564 65.83 81.515V91.105C65.83 93.7532 63.7248 95.9 61.1279 95.9C58.5309 95.9 56.4257 93.7532 56.4257 91.105V81.515C56.4257 77.6999 54.9395 74.041 52.294 71.3433C49.6486 68.6456 46.0605 67.13 42.3193 67.13H23.5107Z" fill="black"/>
</g>
</svg>
